<?xml version="1.0" encoding="utf-8"?>
<!-- Generator: Adobe Illustrator 27.1.1, SVG Export Plug-In . SVG Version: 6.00 Build 0)  -->
<svg version="1.1" id="Layer_1" xmlns="http://www.w3.org/2000/svg" xmlns:xlink="http://www.w3.org/1999/xlink" x="0px" y="0px"
	 viewBox="0 0 1280 770" enable-background="new 0 0 1280 770" xml:space="preserve">
<g>
	<g>
		<g>
			<path fill="#123958" d="M367.845,452.626c-37.289,0-67.626-30.337-67.626-67.627s30.337-67.626,67.626-67.626
				c23.123,0,43.57,11.668,55.77,29.423l55.234-37.836c-24.284-35.339-64.98-58.562-111.004-58.562
				c-74.22,0-134.602,60.382-134.602,134.602s60.382,134.602,134.602,134.602c46.271,0,87.161-23.471,111.397-59.13l-55.43-37.554
				C411.636,440.834,391.092,452.626,367.845,452.626z"/>
			<path fill="#226A5A" d="M367.845,347.817c-20.536,0-37.183,16.647-37.183,37.183c0,20.536,16.647,37.183,37.183,37.183
				c12.805,0,24.097-6.474,30.785-16.326c4.038-5.948,6.398-13.126,6.398-20.857c0-7.799-2.406-15.034-6.509-21.012
				C391.818,354.224,380.582,347.817,367.845,347.817z"/>
		</g>
	</g>
	<g>
		<g>
			<rect x="640.551" y="302.813" fill="#123958" width="21.699" height="109.262"/>
			<path fill="#123958" d="M767.491,339.339c0-23.258-16.858-36.525-38.086-36.525h-45.655v109.262h22.596v-36.525h16.776
				l20.681,36.525h25.561l-23.725-39.49C758.594,367.59,767.491,356.195,767.491,339.339z M730.658,353.815h-24.312v-31.149h24.492
				c8.463,0,14.945,5.581,14.945,15.485C745.782,347.873,739.12,353.815,730.658,353.815z"/>
			<polygon fill="#123958" points="976.465,412.075 1046.757,412.075 1046.757,391.47 998.164,391.47 998.164,367.121 
				1041.099,367.121 1041.099,346.439 998.164,346.439 998.164,323.42 1045.86,323.42 1045.86,302.813 976.465,302.813 			"/>
			<polygon fill="#123958" points="896.35,302.813 896.35,412.075 963.235,412.075 963.235,391.47 919.842,391.47 919.842,302.813 
							"/>
			<g>
				<path fill="#123958" d="M860.234,375.868c-4.902,10.715-14.571,17.255-27.796,17.633c-13.234-0.378-22.913-6.927-27.815-17.652
					c-0.291-0.62-0.562-1.24-0.804-1.889c-1.88-4.805-2.868-10.367-2.868-16.519c0-6.104,0.969-11.597,2.81-16.354
					c0.329-0.862,0.698-1.705,1.095-2.509c4.98-10.386,14.552-16.664,27.583-17.032c13.002,0.368,22.574,6.627,27.554,16.984
					c0.144,0.291,0.277,0.589,0.412,0.887h23.536c-0.046-0.163-0.086-0.33-0.133-0.493c-5.812-23.654-25.735-38.607-50.779-38.607
					c-0.377,0-0.754,0-1.13,0.018c-0.377-0.018-0.753-0.018-1.139-0.018c-25.044,0-44.966,14.953-50.779,38.607
					c-1.641,5.669-2.521,11.858-2.521,18.523c0,6.53,0.843,12.612,2.422,18.191c0,0.018,0,0.045,0.018,0.063
					c5.795,23.887,25.663,38.876,50.86,38.876c0.386,0,0.763,0,1.139-0.018c0.377,0.018,0.753,0.018,1.13,0.018
					c25.197,0,45.065-14.989,50.86-38.876c0.009-0.018,0.009-0.036,0.018-0.063c0.032-0.114,0.06-0.232,0.091-0.346h-23.514
					C860.398,375.482,860.325,375.681,860.234,375.868z"/>
			</g>
			<g>
				<path fill="#123958" d="M605.434,375.868c-4.902,10.715-14.571,17.255-27.796,17.633c-13.234-0.378-22.913-6.927-27.815-17.652
					c-0.291-0.62-0.562-1.24-0.804-1.889c-1.88-4.805-2.868-10.367-2.868-16.519c0-6.104,0.969-11.597,2.81-16.354
					c0.329-0.862,0.698-1.705,1.095-2.509c4.98-10.386,14.552-16.664,27.583-17.032c13.002,0.368,22.574,6.627,27.554,16.984
					c0.144,0.291,0.277,0.589,0.412,0.887h23.536c-0.046-0.163-0.086-0.33-0.133-0.493c-5.813-23.654-25.735-38.607-50.779-38.607
					c-0.377,0-0.754,0-1.13,0.018c-0.377-0.018-0.753-0.018-1.139-0.018c-25.044,0-44.966,14.953-50.779,38.607
					c-1.642,5.669-2.521,11.858-2.521,18.523c0,6.53,0.843,12.612,2.422,18.191c0,0.018,0,0.045,0.018,0.063
					c5.795,23.887,25.663,38.876,50.86,38.876c0.386,0,0.763,0,1.139-0.018c0.377,0.018,0.753,0.018,1.13,0.018
					c25.197,0,45.065-14.989,50.86-38.876c0.009-0.018,0.009-0.036,0.018-0.063c0.032-0.114,0.06-0.232,0.091-0.346h-23.514
					C605.597,375.482,605.524,375.681,605.434,375.868z"/>
			</g>
		</g>
		<g>
			<path fill="#226A5A" d="M567.091,481.64v-36.267h9.661v36.425c0,11.878-9.502,20.113-22.013,20.113s-22.013-8.236-22.013-20.113
				v-36.425h9.66v36.267c0,7.601,6.256,11.244,12.353,11.244S567.091,489.241,567.091,481.64z"/>
			<path fill="#226A5A" d="M602.969,445.373v24.785l20.271-24.785h11.482L612.075,471.9l23.439,28.902h-11.641l-20.905-26.368
				v26.368h-9.66v-55.429H602.969z"/>
			<path fill="#226A5A" d="M696.85,479.026v-7.997h26.844c0,0.95,0.078,1.9,0.078,2.851c0,16.391-11.482,28.031-27.319,28.031
				c-15.916,0-28.031-11.403-28.031-28.823c0-17.42,12.115-28.823,28.031-28.823c12.591,0,22.884,7.285,25.893,19.004h-10.294
				c-2.059-6.097-7.76-9.977-15.599-9.977c-11.64,0-18.371,8.473-18.371,19.796c0,11.324,6.732,19.796,18.371,19.796
				c9.423,0,15.757-5.305,17.025-13.857H696.85z"/>
			<path fill="#226A5A" d="M765.907,479.818l12.432,20.984h-10.69l-11.086-19.955h-9.344v19.955h-9.66v-55.429h21.934
				c10.136,0,18.212,6.731,18.212,17.738C777.705,471.662,772.796,477.602,765.907,479.818z M747.219,471.821h12.433
				c4.83,0,8.551-3.326,8.551-8.71c0-5.384-3.722-8.552-8.631-8.552h-12.353V471.821z"/>
			<path fill="#226A5A" d="M787.691,474.088c0-17.42,12.115-28.823,28.031-28.823c15.916,0,28.111,11.403,28.111,28.823
				c0,17.42-12.195,28.823-28.111,28.823C799.806,502.911,787.691,491.508,787.691,474.088z M797.352,474.088
				c0,11.324,6.731,19.796,18.37,19.796c11.641,0,18.451-8.472,18.451-19.796c0-11.323-6.81-19.796-18.451-19.796
				C804.082,454.292,797.352,462.765,797.352,474.088z"/>
			<path fill="#226A5A" d="M890.983,481.64v-36.267h9.661v36.425c0,11.878-9.502,20.113-22.013,20.113s-22.013-8.236-22.013-20.113
				v-36.425h9.66v36.267c0,7.601,6.256,11.244,12.353,11.244S890.983,489.241,890.983,481.64z"/>
			<path fill="#226A5A" d="M925.861,482.431v18.371h-9.66v-55.429h21.301c10.294,0,18.846,6.493,18.846,18.529
				c0,12.037-8.631,18.529-18.846,18.529H925.861z M925.861,454.559v18.688h11.403c4.909,0,9.501-3.01,9.501-9.344
				c0-6.335-4.592-9.343-9.501-9.343H925.861z"/>
		</g>
	</g>
</g>
</svg>
