<?xml version="1.0" encoding="utf-8"?>
<!-- Generator: Adobe Illustrator 27.1.1, SVG Export Plug-In . SVG Version: 6.00 Build 0)  -->
<svg version="1.1" id="Layer_1" xmlns="http://www.w3.org/2000/svg" xmlns:xlink="http://www.w3.org/1999/xlink" x="0px" y="0px"
	 viewBox="0 0 1280 770" enable-background="new 0 0 1280 770" xml:space="preserve">
<g>
	<g>
		<path fill="#123958" d="M651.117,354.248c-35.729,0-64.797-29.068-64.797-64.798s29.068-64.797,64.797-64.797
			c22.156,0,41.747,11.18,53.437,28.192l52.923-36.253c-23.268-33.86-62.262-56.113-106.36-56.113
			c-71.115,0-128.971,57.856-128.971,128.971s57.856,128.972,128.971,128.972c44.335,0,83.515-22.489,106.737-56.656l-53.111-35.983
			C693.076,342.95,673.392,354.248,651.117,354.248z"/>
		<path fill="#226A5A" d="M651.117,253.824c-19.677,0-35.628,15.951-35.628,35.627c0,19.677,15.951,35.628,35.628,35.628
			c12.269,0,23.089-6.203,29.497-15.643c3.869-5.699,6.131-12.577,6.131-19.984c0-7.473-2.305-14.405-6.237-20.133
			C674.087,259.963,663.321,253.824,651.117,253.824z"/>
	</g>
	<g>
		<path fill="#226A5A" d="M488.726,591.387c0,6.48-5.333,9.585-10.53,9.585c-5.198,0-10.531-3.105-10.531-9.585v-30.918h-8.235
			v31.052c0,10.126,8.101,17.147,18.767,17.147c10.666,0,18.767-7.021,18.767-17.147v-31.052h-8.236V591.387z"/>
		<path fill="#226A5A" d="M599.347,582.34v6.818h14.176c-1.081,7.291-6.481,11.813-14.514,11.813
			c-9.923,0-15.662-7.222-15.662-16.876c0-9.653,5.739-16.876,15.662-16.876c6.683,0,11.544,3.307,13.299,8.505h8.775
			c-2.565-9.991-11.34-16.201-22.074-16.201c-13.569,0-23.897,9.721-23.897,24.572s10.328,24.572,23.897,24.572
			c13.501,0,23.289-9.924,23.289-23.897c0-0.811-0.067-1.621-0.067-2.431H599.347z"/>
		<path fill="#226A5A" d="M668.277,575.59c0-9.384-6.885-15.122-15.526-15.122h-18.699v47.254h8.235v-17.011h7.966l9.451,17.011
			h9.113l-10.598-17.889C664.092,587.944,668.277,582.88,668.277,575.59z M652.886,583.016h-10.599v-14.716h10.531
			c4.185,0,7.358,2.701,7.358,7.291S657.003,583.016,652.886,583.016z"/>
		<path fill="#226A5A" d="M700.686,560.376c-13.569,0-23.897,9.721-23.897,24.572s10.328,24.572,23.897,24.572
			s23.965-9.721,23.965-24.572S714.255,560.376,700.686,560.376z M700.686,601.824c-9.923,0-15.661-7.222-15.661-16.876
			c0-9.653,5.738-16.876,15.661-16.876c9.924,0,15.729,7.223,15.729,16.876C716.416,594.602,710.61,601.824,700.686,601.824z"/>
		<path fill="#226A5A" d="M764.847,591.387c0,6.48-5.333,9.585-10.531,9.585c-5.198,0-10.531-3.105-10.531-9.585v-30.918h-8.235
			v31.052c0,10.126,8.101,17.147,18.767,17.147s18.767-7.021,18.767-17.147v-31.052h-8.236V591.387z"/>
		<path fill="#226A5A" d="M804.505,560.469h-18.159v47.254h8.235v-15.662h9.924c8.708,0,16.066-5.535,16.066-15.796
			C820.571,566.004,813.28,560.469,804.505,560.469z M804.302,584.231h-9.721v-15.932h9.721c4.185,0,8.1,2.565,8.1,7.965
			S808.487,584.231,804.302,584.231z"/>
		<polygon fill="#226A5A" points="546.382,560.469 536.594,560.469 519.312,581.598 519.312,560.469 511.077,560.469 
			511.077,607.723 519.312,607.723 519.312,592.536 522.294,589.004 537.134,607.723 547.057,607.723 527.182,583.214 		"/>
	</g>
	<g>
		<rect x="517.864" y="442.693" fill="#113A59" width="18.512" height="93.219"/>
		<path fill="#113A59" d="M626.164,473.855c0-19.843-14.382-31.162-32.494-31.162H554.72v93.219h19.278V504.75h14.313l17.644,31.162
			h21.808l-20.242-33.691C618.574,497.959,626.164,488.237,626.164,473.855z M594.74,486.206h-20.742v-26.575h20.895
			c7.22,0,12.75,4.762,12.75,13.211C607.643,481.137,601.959,486.206,594.74,486.206z"/>
		<polygon fill="#113A59" points="807.014,535.912 865.278,535.912 865.278,518.332 825.526,518.332 825.526,497.559 
			860.45,497.559 860.45,479.914 825.526,479.914 825.526,460.274 864.513,460.274 864.513,442.693 807.014,442.693 		"/>
		<polygon fill="#113A59" points="738.662,442.693 738.662,535.912 795.726,535.912 795.726,518.332 758.705,518.332 
			758.705,442.693 		"/>
		<g>
			<path fill="#113A59" d="M706.143,505.021c-4.182,9.142-12.432,14.721-23.714,15.044c-11.291-0.322-19.549-5.91-23.731-15.06
				c-0.248-0.529-0.479-1.058-0.686-1.612c-1.604-4.1-2.447-8.844-2.447-14.093c0-5.207,0.827-9.894,2.397-13.953
				c0.281-0.736,0.595-1.455,0.934-2.141c4.249-8.861,12.415-14.217,23.533-14.531c11.093,0.314,19.259,5.654,23.508,14.49
				c0.122,0.248,0.236,0.503,0.351,0.757h20.08c-0.039-0.139-0.073-0.282-0.113-0.42c-4.959-20.181-21.956-32.938-43.323-32.938
				c-0.321,0-0.643,0-0.964,0.015c-0.321-0.015-0.643-0.015-0.972-0.015c-21.367,0-38.364,12.757-43.323,32.938
				c-1.401,4.837-2.15,10.117-2.15,15.803c0,5.571,0.719,10.76,2.066,15.52c0,0.015,0,0.038,0.015,0.054
				c4.944,20.38,21.895,33.168,43.392,33.168c0.329,0,0.651,0,0.972-0.015c0.321,0.015,0.643,0.015,0.964,0.015
				c21.497,0,38.448-12.788,43.392-33.168c0.008-0.015,0.008-0.031,0.015-0.054c0.028-0.097,0.051-0.198,0.078-0.296h-20.061
				C706.282,504.692,706.221,504.861,706.143,505.021z"/>
		</g>
		<g>
			<path fill="#113A59" d="M485.343,505.021c-4.182,9.142-12.432,14.721-23.715,15.044c-11.291-0.322-19.549-5.91-23.731-15.06
				c-0.248-0.529-0.479-1.058-0.686-1.612c-1.604-4.1-2.447-8.844-2.447-14.093c0-5.207,0.827-9.894,2.397-13.953
				c0.281-0.736,0.595-1.455,0.934-2.141c4.249-8.861,12.415-14.217,23.533-14.531c11.093,0.314,19.259,5.654,23.508,14.49
				c0.123,0.248,0.236,0.503,0.352,0.757h20.08c-0.039-0.139-0.073-0.282-0.113-0.42c-4.959-20.181-21.956-32.938-43.323-32.938
				c-0.321,0-0.643,0-0.964,0.015c-0.321-0.015-0.643-0.015-0.972-0.015c-21.367,0-38.364,12.757-43.323,32.938
				c-1.4,4.837-2.15,10.117-2.15,15.803c0,5.571,0.719,10.76,2.066,15.52c0,0.015,0,0.038,0.015,0.054
				c4.944,20.38,21.895,33.168,43.392,33.168c0.329,0,0.651,0,0.972-0.015c0.321,0.015,0.643,0.015,0.964,0.015
				c21.497,0,38.448-12.788,43.392-33.168c0.008-0.015,0.008-0.031,0.015-0.054c0.028-0.097,0.051-0.198,0.078-0.296h-20.061
				C485.482,504.692,485.42,504.861,485.343,505.021z"/>
		</g>
	</g>
</g>
</svg>
